HIERARCHY
ROOT Root
{
	OFFSET 0.000000 -0.207670 -0.502544
	CHANNELS 6 Xposition Yposition Zposition Xrotation Yrotation Zrotation
	JOINT Neck
	{
		OFFSET 0.000000 0.080758 0.156000
		CHANNELS 6 Xposition Yposition Zposition Xrotation Yrotation Zrotation
		JOINT SkullBase
		{
			OFFSET -0.000000 0.084546 0.193738
			CHANNELS 6 Xposition Yposition Zposition Xrotation Yrotation Zrotation
			JOINT Head
			{
				OFFSET 0.000000 0.111978 0.116296
				CHANNELS 6 Xposition Yposition Zposition Xrotation Yrotation Zrotation
				JOINT EyeLeft
				{
					OFFSET -0.071230 0.116504 0.023945
					CHANNELS 6 Xposition Yposition Zposition Xrotation Yrotation Zrotation
					End Site
					{
						OFFSET 0.000000 0.000000 0.138595
					}
				}
				JOINT EyeRight
				{
					OFFSET 0.071148 0.116504 0.023945
					CHANNELS 6 Xposition Yposition Zposition Xrotation Yrotation Zrotation
					End Site
					{
						OFFSET 0.000000 0.000000 0.138595
					}
				}
			}
		}
	}
}
MOTION
Frames: 11
Frame Time: 0.041667
0.000000 -0.207670 -0.502544 -0.000000 0.000000 -0.000000 0.000000 0.080758 0.156000 -0.000000 0.000000 -0.192393 0.000000 0.084546 0.193738 0.356793 0.171579 -5.333736 -0.000000 0.111978 0.116296 0.000000 -0.000000 -0.000001 -0.071230 0.116504 0.023945 0.004377 -0.004672 0.006531 0.071148 0.116504 0.023945 -0.003039 -0.001723 0.005347 
0.000000 -0.207670 -0.502544 -0.000000 0.000000 -0.000000 0.000000 0.080758 0.156000 -0.000000 0.000000 0.190477 -0.000000 0.084546 0.193738 1.253844 0.643771 -4.736692 -0.000000 0.111978 0.116296 -0.000000 0.000000 -0.000000 -0.071230 0.116504 0.023945 0.015858 -0.016922 0.023664 0.071148 0.116504 0.023945 0.012529 0.000632 0.023306 
0.000000 -0.207670 -0.502544 -0.000000 0.000000 -0.000000 0.000000 0.080758 0.156000 -0.000000 0.000000 0.761600 0.000000 0.084546 0.193738 2.149296 1.172317 -4.139930 0.000000 0.111978 0.116296 0.000000 0.000000 0.000000 -0.071230 0.116504 0.023945 0.031970 -0.034102 0.047703 0.071148 0.116504 0.023945 0.034368 0.003944 0.048496 
0.000000 -0.207670 -0.502544 -0.000000 0.000000 -0.000000 0.000000 0.080758 0.156000 -0.000000 0.000000 1.466141 -0.000000 0.084546 0.193738 2.842333 1.655889 -3.674400 -0.000000 0.111978 0.116296 -0.000000 0.000000 -0.000000 -0.071230 0.116504 0.023945 0.050239 -0.053563 0.074951 0.071148 0.116504 0.023945 0.059116 0.007708 0.077044 
0.000000 -0.207670 -0.502544 -0.000000 0.000000 -0.000000 0.000000 0.080758 0.156000 -0.000000 0.000000 2.249224 -0.000000 0.084546 0.193738 3.348234 2.087118 -3.329454 -0.000000 0.111978 0.116296 0.000000 0.000000 0.000000 -0.071230 0.116504 0.023945 0.068186 -0.072664 0.101712 0.071148 0.116504 0.023945 0.083415 0.011417 0.105072 
0.000000 -0.207670 -0.502544 -0.000000 0.000000 -0.000000 0.000000 0.080758 0.156000 -0.000000 0.000000 3.055962 -0.000000 0.084546 0.193738 3.687348 2.462832 -3.091588 0.000000 0.111978 0.116296 -0.000000 -0.000000 0.000000 -0.071230 0.116504 0.023945 0.083327 -0.088765 0.124284 0.071148 0.116504 0.023945 0.103903 0.014554 0.128707 
0.000000 -0.207670 -0.502544 -0.000000 0.000000 -0.000000 0.000000 0.080758 0.156000 -0.000000 0.000000 3.831556 -0.000000 0.084546 0.193738 3.879550 2.781193 -2.948043 0.000000 0.111978 0.116296 -0.000000 -0.000000 0.000000 -0.071230 0.116504 0.023945 0.093177 -0.099231 0.138964 0.071148 0.116504 0.023945 0.117226 0.016599 0.144076 
0.000000 -0.207670 -0.502544 -0.000000 0.000000 -0.000000 0.000000 0.080758 0.156000 -0.000000 0.000000 4.537165 -0.000000 0.084546 0.193738 3.944261 3.041322 -2.886739 0.000000 0.111978 0.116296 -0.000000 -0.000000 -0.000000 -0.071230 0.116504 0.023945 0.095246 -0.101430 0.142048 0.071148 0.116504 0.023945 0.120024 0.017028 0.147304 
0.000000 -0.207670 -0.502544 -0.000000 0.000000 -0.000000 0.000000 0.080758 0.156000 -0.000000 0.000000 5.169430 0.000000 0.084546 0.193738 3.900522 3.243003 -2.896190 0.000000 0.111978 0.116296 0.000000 -0.000000 0.000000 -0.071230 0.116504 0.023945 0.087052 -0.092723 0.129835 0.071148 0.116504 0.023945 0.108941 0.015326 0.134519 
0.000000 -0.207670 -0.502544 -0.000000 0.000000 -0.000000 0.000000 0.080758 0.156000 -0.000000 0.000000 5.729792 -0.000000 0.084546 0.193738 3.767048 3.386423 -2.965406 -0.000000 0.111978 0.116296 -0.000000 -0.000000 -0.000000 -0.071230 0.116504 0.023945 0.066117 -0.070464 0.098628 0.071148 0.116504 0.023945 0.080615 0.010989 0.101843 
0.000000 -0.207670 -0.502544 -0.000000 0.000000 -0.000000 0.000000 0.080758 0.156000 -0.000000 0.000000 6.219698 0.000000 0.084546 0.193738 3.562301 3.471982 -3.083788 -0.000000 0.111978 0.116296 0.000000 -0.000000 0.000000 -0.071230 0.116504 0.023945 0.029987 -0.031987 0.044744 0.071148 0.116504 0.023945 0.031680 0.003535 0.045396 
